<svg xmlns="http://www.w3.org/2000/svg" width="80" height="51" viewBox="0 0 80 51">
  <g fill="#262524">
    <path d="M71.2201639 29.1068852C70.5755738 30.8581967 69.7978689 32.5963934 68.8201639 34.2839344 63.9280328 42.7281967 55.7536066 47.8280328 49.5678689 50.6780328 50.9539344 50.8540984 52.404918 50.9834426 53.9331148 50.9834426 57.1316393 50.9834426 60.5506557 50.5006557 63.8103279 49.1288525 74.8360656 44.4845902 79.8616393 31.4257377 79.8616393 31.4257377 79.8616393 31.4257377 76.2521311 29.8755738 71.2201639 29.1068852zM11.0414754 34.2813115C10.0654098 32.5939344 9.28639344 30.8568852 8.64295082 29.1070492 3.6095082 29.8755738 0 31.4259016 0 31.4259016 0 31.4259016 5.02409836 44.4847541 16.0513115 49.1290164 19.3096721 50.5006557 22.7286885 50.9836066 25.9286885 50.9836066 27.4568852 50.9836066 28.9091803 50.8542623 30.295082 50.6781967 24.1080328 47.8281967 15.9339344 42.7270492 11.0414754 34.2813115zM50.5219672 43.9770492C55.3113115 41.3308197 60.6381967 37.3270492 64.0142623 31.4991803 71.3819672 18.7703279 66.6280328 2.24016393 66.6280328 2.24016393 66.6280328 2.24016393 59.6895082 3.96409836 52.7834426 8.58622951 55.0109836 13.0414754 56.7740984 18.4165574 56.7740984 24.2759016 56.7740984 32.027541 53.6878689 38.9308197 50.5219672 43.9770492zM29.3411475 43.9770492C26.175082 38.9308197 23.0888525 32.027541 23.0888525 24.2759016 23.0888525 18.4165574 24.8519672 13.0414754 27.0795082 8.58622951 20.1734426 3.96409836 13.234918 2.24016393 13.234918 2.24016393 13.234918 2.24016393 8.48114754 18.7704918 15.8490164 31.4991803 19.224918 37.3270492 24.5519672 41.3308197 29.3411475 43.9770492zM39.9321311.0257377049C39.9321311.0257377049 28.6429508 10.8819672 28.6429508 24.2760656 28.6429508 37.6677049 39.9321311 48.525082 39.9321311 48.525082 39.9321311 48.525082 51.2203279 37.6678689 51.2203279 24.2760656 51.2203279 10.8819672 39.9321311.0257377049 39.9321311.0257377049z"/>
  </g>
</svg>
