<?xml version="1.0" encoding="UTF-8"?>
<svg width="80px" height="51px" viewBox="0 0 80 51" version="1.1" xmlns="http://www.w3.org/2000/svg" xmlns:xlink="http://www.w3.org/1999/xlink">
    <!-- Generator: Sketch 48.2 (47327) - http://www.bohemiancoding.com/sketch -->
    <title>lotus</title>
    <desc>Created with Sketch.</desc>
    <defs></defs>
    <g id="SPA-/-Massage" stroke="none" stroke-width="1" fill="none" fill-rule="evenodd" transform="translate(-680.000000, -52.000000)">
        <g id="lotus" transform="translate(680.000000, 52.000000)" fill="#FFFFFF" fill-rule="nonzero">
            <path d="M71.2201639,29.1068852 C70.5755738,30.8581967 69.7978689,32.5963934 68.8201639,34.2839344 C63.9280328,42.7281967 55.7536066,47.8280328 49.5678689,50.6780328 C50.9539344,50.8540984 52.404918,50.9834426 53.9331148,50.9834426 C57.1316393,50.9834426 60.5506557,50.5006557 63.8103279,49.1288525 C74.8360656,44.4845902 79.8616393,31.4257377 79.8616393,31.4257377 C79.8616393,31.4257377 76.2521311,29.8755738 71.2201639,29.1068852 Z" id="XMLID_243_"></path>
            <path d="M11.0414754,34.2813115 C10.0654098,32.5939344 9.28639344,30.8568852 8.64295082,29.1070492 C3.6095082,29.8755738 0,31.4259016 0,31.4259016 C0,31.4259016 5.02409836,44.4847541 16.0513115,49.1290164 C19.3096721,50.5006557 22.7286885,50.9836066 25.9286885,50.9836066 C27.4568852,50.9836066 28.9091803,50.8542623 30.295082,50.6781967 C24.1080328,47.8281967 15.9339344,42.7270492 11.0414754,34.2813115 Z" id="XMLID_244_"></path>
            <path d="M50.5219672,43.9770492 C55.3113115,41.3308197 60.6381967,37.3270492 64.0142623,31.4991803 C71.3819672,18.7703279 66.6280328,2.24016393 66.6280328,2.24016393 C66.6280328,2.24016393 59.6895082,3.96409836 52.7834426,8.58622951 C55.0109836,13.0414754 56.7740984,18.4165574 56.7740984,24.2759016 C56.7740984,32.027541 53.6878689,38.9308197 50.5219672,43.9770492 Z" id="XMLID_245_"></path>
            <path d="M29.3411475,43.9770492 C26.175082,38.9308197 23.0888525,32.027541 23.0888525,24.2759016 C23.0888525,18.4165574 24.8519672,13.0414754 27.0795082,8.58622951 C20.1734426,3.96409836 13.234918,2.24016393 13.234918,2.24016393 C13.234918,2.24016393 8.48114754,18.7704918 15.8490164,31.4991803 C19.224918,37.3270492 24.5519672,41.3308197 29.3411475,43.9770492 Z" id="XMLID_246_"></path>
            <path d="M39.9321311,0.0257377049 C39.9321311,0.0257377049 28.6429508,10.8819672 28.6429508,24.2760656 C28.6429508,37.6677049 39.9321311,48.525082 39.9321311,48.525082 C39.9321311,48.525082 51.2203279,37.6678689 51.2203279,24.2760656 C51.2203279,10.8819672 39.9321311,0.0257377049 39.9321311,0.0257377049 Z" id="XMLID_247_"></path>
        </g>
    </g>
</svg>